{
  "accessors": [
    {
      "bufferView": 2,
      "componentType": 5126,
      "count": 36,
      "max": [
        122.3375015258789,
        5.905511856079102,
        141.2740936279297
      ],
      "min": [
        -127.17050170898438,
        -1.9685039520263672,
        -49.01816177368164
      ],
      "type": "VEC3"
    },
    {
      "bufferView": 2,
      "byteOffset": 432,
      "componentType": 5126,
      "count": 36,
      "max": [
        1.0,
        0.0,
        1.0
      ],
      "min": [
        -1.0,
        -1.0,
        -1.0
      ],
      "type": "VEC3"
    },
    {
      "bufferView": 1,
      "componentType": 5126,
      "count": 36,
      "max": [
        0.999636173248291,
        0.9998440742492676
      ],
      "min": [
        0.0003294216003268957,
        0.0006223684758879244
      ],
      "type": "VEC2"
    },
    {
      "bufferView": 0,
      "componentType": 5125,
      "count": 78,
      "type": "SCALAR"
    },
    {
      "bufferView": 2,
      "byteOffset": 864,
      "componentType": 5126,
      "count": 7241,
      "max": [
        122.3375015258789,
        189.96060180664063,
        141.2740936279297
      ],
      "min": [
        -127.17050170898438,
        -1.9685039520263672,
        -49.01816177368164
      ],
      "type": "VEC3"
    },
    {
      "bufferView": 2,
      "byteOffset": 87756,
      "componentType": 5126,
      "count": 7241,
      "max": [
        1.0,
        1.0,
        1.0
      ],
      "min": [
        -1.0,
        -1.0,
        -1.0
      ],
      "type": "VEC3"
    },
    {
      "bufferView": 1,
      "byteOffset": 288,
      "componentType": 5126,
      "count": 7241,
      "max": [
        0.0,
        0.0
      ],
      "min": [
        0.0,
        0.0
      ],
      "type": "VEC2"
    },
    {
      "bufferView": 0,
      "byteOffset": 312,
      "componentType": 5125,
      "count": 19476,
      "type": "SCALAR"
    },
    {
      "bufferView": 2,
      "byteOffset": 174648,
      "componentType": 5126,
      "count": 4,
      "max": [
        -78.18911743164063,
        13.779529571533203,
        82.28346252441406
      ],
      "min": [
        -78.18911743164063,
        0.0,
        0.0
      ],
      "type": "VEC3"
    },
    {
      "bufferView": 2,
      "byteOffset": 174696,
      "componentType": 5126,
      "count": 4,
      "max": [
        1.0,
        0.0,
        0.0
      ],
      "min": [
        1.0,
        0.0,
        0.0
      ],
      "type": "VEC3"
    },
    {
      "bufferView": 1,
      "byteOffset": 58216,
      "componentType": 5126,
      "count": 4,
      "max": [
        0.9902144074440002,
        0.9983623027801514
      ],
      "min": [
        0.009659985080361366,
        0.0016378009459003806
      ],
      "type": "VEC2"
    },
    {
      "bufferView": 0,
      "byteOffset": 78216,
      "componentType": 5125,
      "count": 6,
      "type": "SCALAR"
    },
    {
      "bufferView": 2,
      "byteOffset": 174744,
      "componentType": 5126,
      "count": 7773,
      "max": [
        95.72046661376953,
        189.96060180664063,
        98.42520141601563
      ],
      "min": [
        -86.36614227294922,
        0.0,
        0.0
      ],
      "type": "VEC3"
    },
    {
      "bufferView": 2,
      "byteOffset": 268020,
      "componentType": 5126,
      "count": 7773,
      "max": [
        1.0,
        1.0,
        1.0
      ],
      "min": [
        -1.0,
        -1.0,
        -1.0
      ],
      "type": "VEC3"
    },
    {
      "bufferView": 0,
      "byteOffset": 78240,
      "componentType": 5125,
      "count": 22881,
      "type": "SCALAR"
    },
    {
      "bufferView": 2,
      "byteOffset": 361296,
      "componentType": 5126,
      "count": 4,
      "max": [
        11.793930053710938,
        13.779529571533203,
        82.28346252441406
      ],
      "min": [
        11.793930053710938,
        0.0,
        0.0
      ],
      "type": "VEC3"
    },
    {
      "bufferView": 2,
      "byteOffset": 361344,
      "componentType": 5126,
      "count": 4,
      "max": [
        1.0,
        0.0,
        0.0
      ],
      "min": [
        1.0,
        0.0,
        0.0
      ],
      "type": "VEC3"
    },
    {
      "bufferView": 1,
      "byteOffset": 58248,
      "componentType": 5126,
      "count": 4,
      "max": [
        0.9867355823516846,
        0.9978641867637634
      ],
      "min": [
        0.011941649951040745,
        0.002034876961261034
      ],
      "type": "VEC2"
    },
    {
      "bufferView": 0,
      "byteOffset": 169764,
      "componentType": 5125,
      "count": 6,
      "type": "SCALAR"
    },
    {
      "bufferView": 2,
      "byteOffset": 361392,
      "componentType": 5126,
      "count": 16,
      "max": [
        92.7677230834961,
        187.00790405273438,
        3.9370079040527344
      ],
      "min": [
        -86.36614227294922,
        13.779529571533203,
        0.0
      ],
      "type": "VEC3"
    },
    {
      "bufferView": 2,
      "byteOffset": 361584,
      "componentType": 5126,
      "count": 16,
      "max": [
        1.0,
        1.0,
        0.0
      ],
      "min": [
        0.0,
        -1.0,
        0.0
      ],
      "type": "VEC3"
    },
    {
      "bufferView": 1,
      "byteOffset": 58280,
      "componentType": 5126,
      "count": 16,
      "max": [
        9.5,
        0.20000000298023224
      ],
      "min": [
        -4.387400150299072,
        0.0
      ],
      "type": "VEC2"
    },
    {
      "bufferView": 0,
      "byteOffset": 169788,
      "componentType": 5125,
      "count": 24,
      "type": "SCALAR"
    },
    {
      "bufferView": 2,
      "byteOffset": 361776,
      "componentType": 5126,
      "count": 59,
      "max": [
        92.7677230834961,
        187.00790405273438,
        98.42520141601563
      ],
      "min": [
        -86.36614227294922,
        13.779529571533203,
        0.0
      ],
      "type": "VEC3"
    },
    {
      "bufferView": 2,
      "byteOffset": 362484,
      "componentType": 5126,
      "count": 59,
      "max": [
        1.0,
        1.0,
        9.023893032144474e-16
      ],
      "min": [
        -1.0,
        -1.0,
        -1.0
      ],
      "type": "VEC3"
    },
    {
      "bufferView": 0,
      "byteOffset": 169884,
      "componentType": 5125,
      "count": 114,
      "type": "SCALAR"
    },
    {
      "bufferView": 2,
      "byteOffset": 363192,
      "componentType": 5126,
      "count": 37,
      "max": [
        92.7677230834961,
        187.00790405273438,
        78.74015808105469
      ],
      "min": [
        -86.36614227294922,
        0.0,
        -3.552713996437856e-16
      ],
      "type": "VEC3"
    },
    {
      "bufferView": 2,
      "byteOffset": 363636,
      "componentType": 5126,
      "count": 37,
      "max": [
        1.0,
        1.0,
        1.0
      ],
      "min": [
        0.0,
        0.0,
        -4.77034000468147e-17
      ],
      "type": "VEC3"
    },
    {
      "bufferView": 1,
      "byteOffset": 58408,
      "componentType": 5126,
      "count": 37,
      "max": [
        3.9583330154418945,
        3.9583330154418945
      ],
      "min": [
        -1.963582992553711,
        -2.099546025751277e-17
      ],
      "type": "VEC2"
    },
    {
      "bufferView": 0,
      "byteOffset": 170340,
      "componentType": 5125,
      "count": 78,
      "type": "SCALAR"
    },
    {
      "bufferView": 2,
      "byteOffset": 364080,
      "componentType": 5126,
      "count": 124,
      "max": [
        92.7677230834961,
        187.00790405273438,
        73.22834777832031
      ],
      "min": [
        -85.57874298095703,
        13.779529571533203,
        -3.552713996437856e-16
      ],
      "type": "VEC3"
    },
    {
      "bufferView": 2,
      "byteOffset": 365568,
      "componentType": 5126,
      "count": 124,
      "max": [
        1.0,
        1.0,
        1.0
      ],
      "min": [
        -1.0,
        -1.0,
        -1.0
      ],
      "type": "VEC3"
    },
    {
      "bufferView": 1,
      "byteOffset": 58704,
      "componentType": 5126,
      "count": 124,
      "max": [
        4.712600231170654,
        3.7200000286102295
      ],
      "min": [
        -9.5,
        -0.11999999731779099
      ],
      "type": "VEC2"
    },
    {
      "bufferView": 0,
      "byteOffset": 170652,
      "componentType": 5125,
      "count": 210,
      "type": "SCALAR"
    },
    {
      "bufferView": 2,
      "byteOffset": 367056,
      "componentType": 5126,
      "count": 20,
      "max": [
        92.7677230834961,
        187.00790405273438,
        98.42520141601563
      ],
      "min": [
        -86.36614227294922,
        13.779529571533203,
        68.70079040527344
      ],
      "type": "VEC3"
    },
    {
      "bufferView": 2,
      "byteOffset": 367296,
      "componentType": 5126,
      "count": 20,
      "max": [
        4.2489771015374887e-19,
        2.7345019407839244e-17,
        1.0
      ],
      "min": [
        -4.2489771015374887e-19,
        -2.7345019407839244e-17,
        -1.0
      ],
      "type": "VEC3"
    },
    {
      "bufferView": 0,
      "byteOffset": 171492,
      "componentType": 5125,
      "count": 42,
      "type": "SCALAR"
    },
    {
      "bufferView": 2,
      "byteOffset": 367536,
      "componentType": 5126,
      "count": 21,
      "max": [
        94.5313720703125,
        -1.9685039520263672,
        100.0
      ],
      "min": [
        -98.38203430175781,
        -1.9685039520263672,
        82.28346252441406
      ],
      "type": "VEC3"
    },
    {
      "bufferView": 2,
      "byteOffset": 367788,
      "componentType": 5126,
      "count": 21,
      "max": [
        0.0,
        -1.0,
        0.0
      ],
      "min": [
        0.0,
        -1.0,
        0.0
      ],
      "type": "VEC3"
    },
    {
      "bufferView": 1,
      "byteOffset": 59696,
      "componentType": 5126,
      "count": 21,
      "max": [
        1.0,
        1.0
      ],
      "min": [
        0.0,
        0.0
      ],
      "type": "VEC2"
    },
    {
      "bufferView": 0,
      "byteOffset": 171660,
      "componentType": 5125,
      "count": 69,
      "type": "SCALAR"
    },
    {
      "bufferView": 2,
      "byteOffset": 368040,
      "componentType": 5126,
      "count": 8,
      "max": [
        67.28727722167969,
        -1.9685039520263672,
        98.03150177001953
      ],
      "min": [
        -73.59857177734375,
        -1.9685039520263672,
        84.25196838378906
      ],
      "type": "VEC3"
    },
    {
      "bufferView": 2,
      "byteOffset": 368136,
      "componentType": 5126,
      "count": 8,
      "max": [
        0.0,
        -1.0,
        0.0
      ],
      "min": [
        0.0,
        -1.0,
        0.0
      ],
      "type": "VEC3"
    },
    {
      "bufferView": 1,
      "byteOffset": 59864,
      "componentType": 5126,
      "count": 8,
      "max": [
        4.0,
        -6.0
      ],
      "min": [
        1.0005710124969482,
        -7.0
      ],
      "type": "VEC2"
    },
    {
      "bufferView": 0,
      "byteOffset": 171936,
      "componentType": 5125,
      "count": 12,
      "type": "SCALAR"
    },
    {
      "bufferView": 2,
      "byteOffset": 368232,
      "componentType": 5126,
      "count": 16,
      "max": [
        91.57856750488281,
        -1.9685039520263672,
        98.03150177001953
      ],
      "min": [
        -96.41352844238281,
        -1.9685039520263672,
        84.25196838378906
      ],
      "type": "VEC3"
    },
    {
      "bufferView": 2,
      "byteOffset": 368424,
      "componentType": 5126,
      "count": 16,
      "max": [
        0.0,
        -1.0,
        0.0
      ],
      "min": [
        0.0,
        -1.0,
        0.0
      ],
      "type": "VEC3"
    },
    {
      "bufferView": 1,
      "byteOffset": 59928,
      "componentType": 5126,
      "count": 16,
      "max": [
        13.097140312194824,
        1.0
      ],
      "min": [
        0.0,
        0.0
      ],
      "type": "VEC2"
    },
    {
      "bufferView": 0,
      "byteOffset": 171984,
      "componentType": 5125,
      "count": 24,
      "type": "SCALAR"
    },
    {
      "bufferView": 2,
      "byteOffset": 368616,
      "componentType": 5126,
      "count": 16,
      "max": [
        36.141475677490234,
        185.63040161132813,
        74.80315399169922
      ],
      "min": [
        -0.2364027500152588,
        157.28347778320313,
        12.401579856872559
      ],
      "type": "VEC3"
    },
    {
      "bufferView": 2,
      "byteOffset": 368808,
      "componentType": 5126,
      "count": 16,
      "max": [
        1.0,
        0.0,
        0.0
      ],
      "min": [
        -1.0,
        0.0,
        0.0
      ],
      "type": "VEC3"
    },
    {
      "bufferView": 0,
      "byteOffset": 172080,
      "componentType": 5125,
      "count": 24,
      "type": "SCALAR"
    },
    {
      "bufferView": 2,
      "byteOffset": 369000,
      "componentType": 5126,
      "count": 32,
      "max": [
        36.4443473815918,
        186.22096252441406,
        75.3936996459961
      ],
      "min": [
        -0.5398308634757996,
        156.6934051513672,
        11.811019897460938
      ],
      "type": "VEC3"
    },
    {
      "bufferView": 0,
      "byteOffset": 172176,
      "componentType": 5125,
      "count": 96,
      "type": "SCALAR"
    },
    {
      "bufferView": 2,
      "byteOffset": 369384,
      "componentType": 5126,
      "count": 192,
      "max": [
        36.4443473815918,
        186.22096252441406,
        75.3936996459961
      ],
      "min": [
        -0.5398308634757996,
        156.6934051513672,
        11.811019897460938
      ],
      "type": "VEC3"
    },
    {
      "bufferView": 2,
      "byteOffset": 371688,
      "componentType": 5126,
      "count": 192,
      "max": [
        1.0,
        1.0,
        1.0
      ],
      "min": [
        -1.0,
        -1.0,
        -1.0
      ],
      "type": "VEC3"
    },
    {
      "bufferView": 0,
      "byteOffset": 172560,
      "componentType": 5125,
      "count": 384,
      "type": "SCALAR"
    },
    {
      "bufferView": 2,
      "byteOffset": 373992,
      "componentType": 5126,
      "count": 56,
      "max": [
        81.45140838623047,
        186.22048950195313,
        75.3936996459961
      ],
      "min": [
        0.06709455698728561,
        4.284667909359996e-07,
        0.7874016165733337
      ],
      "type": "VEC3"
    },
    {
      "bufferView": 0,
      "byteOffset": 174096,
      "componentType": 5125,
      "count": 154,
      "type": "SCALAR"
    },
    {
      "bufferView": 2,
      "byteOffset": 374664,
      "componentType": 5126,
      "count": 8,
      "max": [
        35.8386344909668,
        161.58132934570313,
        24.40945053100586
      ],
      "min": [
        0.06709455698728561,
        156.69338989257813,
        23.228349685668945
      ],
      "type": "VEC3"
    },
    {
      "bufferView": 2,
      "byteOffset": 374760,
      "componentType": 5126,
      "count": 8,
      "max": [
        -2.5235554659362844e-16,
        -2.4364509704482423e-14,
        1.0
      ],
      "min": [
        -1.795984286854027e-15,
        -0.375,
        0.927024781703949
      ],
      "type": "VEC3"
    },
    {
      "bufferView": 1,
      "byteOffset": 60056,
      "componentType": 5126,
      "count": 8,
      "max": [
        104.99569702148438,
        929.5861206054688
      ],
      "min": [
        103.0,
        864.0
      ],
      "type": "VEC2"
    },
    {
      "bufferView": 0,
      "byteOffset": 174712,
      "componentType": 5125,
      "count": 12,
      "type": "SCALAR"
    },
    {
      "bufferView": 2,
      "byteOffset": 374856,
      "componentType": 5126,
      "count": 110,
      "max": [
        35.8386344909668,
        186.22048950195313,
        75.3936996459961
      ],
      "min": [
        0.06709455698728561,
        156.69338989257813,
        0.7874016165733337
      ],
      "type": "VEC3"
    },
    {
      "bufferView": 2,
      "byteOffset": 376176,
      "componentType": 5126,
      "count": 110,
      "max": [
        1.0,
        1.0,
        1.0
      ],
      "min": [
        -1.0,
        -1.0,
        -1.0
      ],
      "type": "VEC3"
    },
    {
      "bufferView": 0,
      "byteOffset": 174760,
      "componentType": 5125,
      "count": 252,
      "type": "SCALAR"
    },
    {
      "bufferView": 2,
      "byteOffset": 377496,
      "componentType": 5126,
      "count": 8,
      "max": [
        35.8386344909668,
        186.22048950195313,
        68.70079040527344
      ],
      "min": [
        0.06709455698728561,
        158.66140747070313,
        13.385828971862793
      ],
      "type": "VEC3"
    },
    {
      "bufferView": 0,
      "byteOffset": 175768,
      "componentType": 5125,
      "count": 10,
      "type": "SCALAR"
    },
    {
      "bufferView": 2,
      "byteOffset": 377592,
      "componentType": 5126,
      "count": 154,
      "max": [
        81.45140838623047,
        186.22048950195313,
        75.3936996459961
      ],
      "min": [
        0.06709455698728561,
        4.284667909359996e-07,
        0.7874016165733337
      ],
      "type": "VEC3"
    },
    {
      "bufferView": 2,
      "byteOffset": 379440,
      "componentType": 5126,
      "count": 154,
      "max": [
        1.0,
        1.0,
        1.0
      ],
      "min": [
        -1.0,
        -1.0,
        -1.0
      ],
      "type": "VEC3"
    },
    {
      "bufferView": 0,
      "byteOffset": 175808,
      "componentType": 5125,
      "count": 234,
      "type": "SCALAR"
    },
    {
      "bufferView": 2,
      "byteOffset": 381288,
      "componentType": 5126,
      "count": 10,
      "max": [
        35.8386344909668,
        176.37844848632813,
        69.88188934326172
      ],
      "min": [
        0.06709455698728561,
        165.15750122070313,
        24.40945053100586
      ],
      "type": "VEC3"
    },
    {
      "bufferView": 2,
      "byteOffset": 381408,
      "componentType": 5126,
      "count": 10,
      "max": [
        1.0,
        0.0,
        0.0
      ],
      "min": [
        -1.0,
        0.0,
        0.0
      ],
      "type": "VEC3"
    },
    {
      "bufferView": 1,
      "byteOffset": 60120,
      "componentType": 5126,
      "count": 10,
      "max": [
        0.9895672798156738,
        1.0
      ],
      "min": [
        -2.0,
        1.1102230246251565e-16
      ],
      "type": "VEC2"
    },
    {
      "bufferView": 0,
      "byteOffset": 176744,
      "componentType": 5125,
      "count": 18,
      "type": "SCALAR"
    },
    {
      "bufferView": 2,
      "byteOffset": 381528,
      "componentType": 5126,
      "count": 12,
      "max": [
        35.8386344909668,
        186.22048950195313,
        24.40945053100586
      ],
      "min": [
        0.06709455698728561,
        158.66140747070313,
        0.7874016165733337
      ],
      "type": "VEC3"
    },
    {
      "bufferView": 2,
      "byteOffset": 381672,
      "componentType": 5126,
      "count": 12,
      "max": [
        1.0,
        0.0,
        1.0
      ],
      "min": [
        -1.0,
        -3.9239489072308634e-14,
        0.0
      ],
      "type": "VEC3"
    },
    {
      "bufferView": 0,
      "byteOffset": 176816,
      "componentType": 5125,
      "count": 18,
      "type": "SCALAR"
    },
    {
      "bufferView": 2,
      "byteOffset": 381816,
      "componentType": 5126,
      "count": 4,
      "max": [
        35.8386344909668,
        165.15750122070313,
        68.70079040527344
      ],
      "min": [
        0.06709455698728561,
        165.15750122070313,
        24.40945053100586
      ],
      "type": "VEC3"
    },
    {
      "bufferView": 2,
      "byteOffset": 381864,
      "componentType": 5126,
      "count": 4,
      "max": [
        -0.0,
        -1.0,
        -0.0
      ],
      "min": [
        -0.0,
        -1.0,
        -0.0
      ],
      "type": "VEC3"
    },
    {
      "bufferView": 1,
      "byteOffset": 60200,
      "componentType": 5126,
      "count": 4,
      "max": [
        1.0,
        2.0
      ],
      "min": [
        0.0,
        1.0
      ],
      "type": "VEC2"
    },
    {
      "bufferView": 0,
      "byteOffset": 176888,
      "componentType": 5125,
      "count": 6,
      "type": "SCALAR"
    },
    {
      "bufferView": 2,
      "byteOffset": 381912,
      "componentType": 5126,
      "count": 3,
      "max": [
        35.8386344909668,
        158.66140747070313,
        13.385828971862793
      ],
      "min": [
        0.06709455698728561,
        158.66140747070313,
        0.7874016165733337
      ],
      "type": "VEC3"
    },
    {
      "bufferView": 0,
      "byteOffset": 176912,
      "componentType": 5125,
      "count": 4,
      "type": "SCALAR"
    },
    {
      "bufferView": 2,
      "byteOffset": 381948,
      "componentType": 5126,
      "count": 4,
      "max": [
        35.8386344909668,
        158.66140747070313,
        13.385828971862793
      ],
      "min": [
        0.06709455698728561,
        158.66140747070313,
        0.7874016165733337
      ],
      "type": "VEC3"
    },
    {
      "bufferView": 2,
      "byteOffset": 381996,
      "componentType": 5126,
      "count": 4,
      "max": [
        0.0,
        -1.0,
        0.0
      ],
      "min": [
        0.0,
        -1.0,
        0.0
      ],
      "type": "VEC3"
    },
    {
      "bufferView": 1,
      "byteOffset": 60232,
      "componentType": 5126,
      "count": 4,
      "max": [
        0.9974035024642944,
        0.9925000071525574
      ],
      "min": [
        0.002286622067913413,
        0.00833908561617136
      ],
      "type": "VEC2"
    },
    {
      "bufferView": 0,
      "byteOffset": 176928,
      "componentType": 5125,
      "count": 6,
      "type": "SCALAR"
    },
    {
      "bufferView": 2,
      "byteOffset": 382044,
      "componentType": 5126,
      "count": 4,
      "max": [
        35.8386344909668,
        156.69338989257813,
        75.3936996459961
      ],
      "min": [
        0.06709455698728561,
        156.69338989257813,
        68.70079040527344
      ],
      "type": "VEC3"
    },
    {
      "bufferView": 2,
      "byteOffset": 382092,
      "componentType": 5126,
      "count": 4,
      "max": [
        0.0,
        -1.0,
        -6.794459878620498e-14
      ],
      "min": [
        0.0,
        -1.0,
        -6.794459878620498e-14
      ],
      "type": "VEC3"
    },
    {
      "bufferView": 1,
      "byteOffset": 60264,
      "componentType": 5126,
      "count": 4,
      "max": [
        0.9978693723678589,
        0.9855815172195435
      ],
      "min": [
        0.0020849050488322973,
        0.014118240214884281
      ],
      "type": "VEC2"
    },
    {
      "bufferView": 0,
      "byteOffset": 176952,
      "componentType": 5125,
      "count": 6,
      "type": "SCALAR"
    },
    {
      "bufferView": 2,
      "byteOffset": 382140,
      "componentType": 5126,
      "count": 4,
      "max": [
        35.8386344909668,
        156.69338989257813,
        23.228349685668945
      ],
      "min": [
        0.06709455698728561,
        156.69338989257813,
        13.385828971862793
      ],
      "type": "VEC3"
    },
    {
      "bufferView": 2,
      "byteOffset": 382188,
      "componentType": 5126,
      "count": 4,
      "max": [
        0.0,
        -1.0,
        -4.6202330291700636e-14
      ],
      "min": [
        0.0,
        -1.0,
        -4.6202330291700636e-14
      ],
      "type": "VEC3"
    },
    {
      "bufferView": 1,
      "byteOffset": 60296,
      "componentType": 5126,
      "count": 4,
      "max": [
        0.997673511505127,
        0.9881165027618408
      ],
      "min": [
        0.0022456441074609756,
        0.010410729795694351
      ],
      "type": "VEC2"
    },
    {
      "bufferView": 0,
      "byteOffset": 176976,
      "componentType": 5125,
      "count": 6,
      "type": "SCALAR"
    },
    {
      "bufferView": 2,
      "byteOffset": 382236,
      "componentType": 5126,
      "count": 24,
      "max": [
        -72.38976287841797,
        81.49606323242188,
        70.86614227294922
      ],
      "min": [
        -86.36614227294922,
        21.653539657592773,
        3.5527141023169746e-15
      ],
      "type": "VEC3"
    },
    {
      "bufferView": 2,
      "byteOffset": 382524,
      "componentType": 5126,
      "count": 24,
      "max": [
        8.326672684688674e-17,
        1.0,
        0.0
      ],
      "min": [
        -8.326672684688674e-17,
        -1.0,
        0.0
      ],
      "type": "VEC3"
    },
    {
      "bufferView": 1,
      "byteOffset": 60328,
      "componentType": 5126,
      "count": 24,
      "max": [
        0.9908775091171265,
        0.9979209899902344
      ],
      "min": [
        0.0,
        0.0
      ],
      "type": "VEC2"
    },
    {
      "bufferView": 0,
      "byteOffset": 177000,
      "componentType": 5125,
      "count": 48,
      "type": "SCALAR"
    },
    {
      "bufferView": 2,
      "byteOffset": 382812,
      "componentType": 5126,
      "count": 24,
      "max": [
        -72.38976287841797,
        81.49606323242188,
        70.86614227294922
      ],
      "min": [
        -74.35826873779297,
        21.653539657592773,
        3.5527141023169746e-15
      ],
      "type": "VEC3"
    },
    {
      "bufferView": 2,
      "byteOffset": 383100,
      "componentType": 5126,
      "count": 24,
      "max": [
        1.0,
        5.358287080066606e-17,
        1.0
      ],
      "min": [
        6.445638163707977e-17,
        1.540444204450329e-33,
        -6.445638163707977e-17
      ],
      "type": "VEC3"
    },
    {
      "bufferView": 1,
      "byteOffset": 60520,
      "componentType": 5126,
      "count": 24,
      "max": [
        0.9939734935760498,
        0.9967328906059265
      ],
      "min": [
        -0.9939734935760498,
        -0.19657790660858154
      ],
      "type": "VEC2"
    },
    {
      "bufferView": 0,
      "byteOffset": 177192,
      "componentType": 5125,
      "count": 36,
      "type": "SCALAR"
    },
    {
      "bufferView": 2,
      "byteOffset": 383388,
      "componentType": 5126,
      "count": 3382,
      "max": [
        81.84510803222656,
        13.779529571533203,
        40.35432815551758
      ],
      "min": [
        43.656131744384766,
        0.590549886226654,
        0.0
      ],
      "type": "VEC3"
    },
    {
      "bufferView": 2,
      "byteOffset": 423972,
      "componentType": 5126,
      "count": 3382,
      "max": [
        1.0,
        1.0,
        1.0
      ],
      "min": [
        -1.0,
        -1.0,
        -1.0
      ],
      "type": "VEC3"
    },
    {
      "bufferView": 0,
      "byteOffset": 177336,
      "componentType": 5125,
      "count": 5928,
      "type": "SCALAR"
    },
    {
      "bufferView": 2,
      "byteOffset": 464556,
      "componentType": 5126,
      "count": 1408,
      "max": [
        80.86084747314453,
        13.188979148864746,
        47.24409103393555
      ],
      "min": [
        44.640380859375,
        12.0078763961792,
        35.43307113647461
      ],
      "type": "VEC3"
    },
    {
      "bufferView": 2,
      "byteOffset": 481452,
      "componentType": 5126,
      "count": 1408,
      "max": [
        0.9876883029937744,
        0.7151792049407959,
        0.9876883029937744
      ],
      "min": [
        -0.9876883029937744,
        -0.7151792049407959,
        -0.9876883029937744
      ],
      "type": "VEC3"
    },
    {
      "bufferView": 0,
      "byteOffset": 201048,
      "componentType": 5125,
      "count": 7584,
      "type": "SCALAR"
    },
    {
      "bufferView": 2,
      "byteOffset": 498348,
      "componentType": 5126,
      "count": 11120,
      "max": [
        80.58042907714844,
        12.716530799865723,
        46.61417007446289
      ],
      "min": [
        44.6158561706543,
        0.7004336714744568,
        3.937007427215576
      ],
      "type": "VEC3"
    },
    {
      "bufferView": 2,
      "byteOffset": 631788,
      "componentType": 5126,
      "count": 11120,
      "max": [
        1.0,
        1.0,
        1.0
      ],
      "min": [
        -1.0,
        -1.0,
        -1.0
      ],
      "type": "VEC3"
    },
    {
      "bufferView": 1,
      "byteOffset": 60712,
      "componentType": 5126,
      "count": 11120,
      "max": [
        4.655667781829834,
        4.3851847648620605
      ],
      "min": [
        -4.41134786605835,
        -0.0007693850784562528
      ],
      "type": "VEC2"
    },
    {
      "bufferView": 0,
      "byteOffset": 231384,
      "componentType": 5125,
      "count": 18390,
      "type": "SCALAR"
    },
    {
      "bufferView": 2,
      "byteOffset": 765228,
      "componentType": 5126,
      "count": 845,
      "max": [
        62.407196044921875,
        12.716530799865723,
        46.61417007446289
      ],
      "min": [
        53.548927307128906,
        0.7004336714744568,
        3.937007427215576
      ],
      "type": "VEC3"
    },
    {
      "bufferView": 2,
      "byteOffset": 775368,
      "componentType": 5126,
      "count": 845,
      "max": [
        1.0,
        1.0,
        1.0
      ],
      "min": [
        -1.3301729964809668e-16,
        -1.0,
        -1.0
      ],
      "type": "VEC3"
    },
    {
      "bufferView": 1,
      "byteOffset": 149672,
      "componentType": 5126,
      "count": 845,
      "max": [
        1.459030032157898,
        1.0083279609680176
      ],
      "min": [
        -3.4104480743408203,
        -0.013749820180237293
      ],
      "type": "VEC2"
    },
    {
      "bufferView": 0,
      "byteOffset": 304944,
      "componentType": 5125,
      "count": 1716,
      "type": "SCALAR"
    },
    {
      "bufferView": 2,
      "byteOffset": 785508,
      "componentType": 5126,
      "count": 2200,
      "max": [
        71.3993148803711,
        12.716530799865723,
        46.61417007446289
      ],
      "min": [
        62.54104995727539,
        0.7004336714744568,
        3.937007427215576
      ],
      "type": "VEC3"
    },
    {
      "bufferView": 2,
      "byteOffset": 811908,
      "componentType": 5126,
      "count": 2200,
      "max": [
        1.0,
        1.0,
        1.0
      ],
      "min": [
        -1.3301729964809668e-16,
        -1.0,
        -1.0
      ],
      "type": "VEC3"
    },
    {
      "bufferView": 1,
      "byteOffset": 156432,
      "componentType": 5126,
      "count": 2200,
      "max": [
        6.058811187744141,
        5.0022292137146
      ],
      "min": [
        -5.511983871459961,
        3.3851850032806396
      ],
      "type": "VEC2"
    },
    {
      "bufferView": 0,
      "byteOffset": 311808,
      "componentType": 5125,
      "count": 3300,
      "type": "SCALAR"
    },
    {
      "bufferView": 2,
      "byteOffset": 838308,
      "componentType": 5126,
      "count": 526,
      "max": [
        62.993804931640625,
        12.716530799865723,
        46.61417007446289
      ],
      "min": [
        62.54104995727539,
        0.7004336714744568,
        3.937007427215576
      ],
      "type": "VEC3"
    },
    {
      "bufferView": 0,
      "byteOffset": 325008,
      "componentType": 5125,
      "count": 1000,
      "type": "SCALAR"
    },
    {
      "bufferView": 2,
      "byteOffset": 844620,
      "componentType": 5126,
      "count": 616,
      "max": [
        80.58042907714844,
        12.716530799865723,
        46.61417007446289
      ],
      "min": [
        71.72216033935547,
        0.7004336714744568,
        3.937007427215576
      ],
      "type": "VEC3"
    },
    {
      "bufferView": 2,
      "byteOffset": 852012,
      "componentType": 5126,
      "count": 616,
      "max": [
        1.0,
        1.0,
        1.0
      ],
      "min": [
        -1.3301729964809668e-16,
        -1.0,
        -1.0
      ],
      "type": "VEC3"
    },
    {
      "bufferView": 1,
      "byteOffset": 174032,
      "componentType": 5126,
      "count": 616,
      "max": [
        10.16958999633789,
        4.3851847648620605
      ],
      "min": [
        -9.635910034179688,
        3.0
      ],
      "type": "VEC2"
    },
    {
      "bufferView": 0,
      "byteOffset": 329008,
      "componentType": 5125,
      "count": 924,
      "type": "SCALAR"
    },
    {
      "bufferView": 2,
      "byteOffset": 859404,
      "componentType": 5126,
      "count": 152,
      "max": [
        72.17491149902344,
        12.716530799865723,
        46.61417007446289
      ],
      "min": [
        71.72216033935547,
        0.7004336714744568,
        3.937007427215576
      ],
      "type": "VEC3"
    },
    {
      "bufferView": 0,
      "byteOffset": 332704,
      "componentType": 5125,
      "count": 280,
      "type": "SCALAR"
    },
    {
      "bufferView": 2,
      "byteOffset": 861228,
      "componentType": 5126,
      "count": 232,
      "max": [
        -1.3267693519592285,
        154.72439575195313,
        82.48030853271484
      ],
      "min": [
        -85.57874298095703,
        151.57479858398438,
        71.25984191894531
      ],
      "type": "VEC3"
    },
    {
      "bufferView": 0,
      "byteOffset": 333824,
      "componentType": 5125,
      "count": 488,
      "type": "SCALAR"
    },
    {
      "bufferView": 2,
      "byteOffset": 864012,
      "componentType": 5126,
      "count": 352,
      "max": [
        -1.3267693519592285,
        154.72439575195313,
        82.48030853271484
      ],
      "min": [
        -85.57874298095703,
        151.57479858398438,
        71.25984191894531
      ],
      "type": "VEC3"
    },
    {
      "bufferView": 2,
      "byteOffset": 868236,
      "componentType": 5126,
      "count": 352,
      "max": [
        1.0,
        1.0,
        1.0
      ],
      "min": [
        -1.0,
        -1.0,
        -1.0
      ],
      "type": "VEC3"
    },
    {
      "bufferView": 0,
      "byteOffset": 335776,
      "componentType": 5125,
      "count": 528,
      "type": "SCALAR"
    },
    {
      "bufferView": 2,
      "byteOffset": 872460,
      "componentType": 5126,
      "count": 94,
      "max": [
        -1.3267693519592285,
        155.11810302734375,
        84.25196838378906
      ],
      "min": [
        -85.57874298095703,
        149.60629272460938,
        3.9370079040527344
      ],
      "type": "VEC3"
    },
    {
      "bufferView": 0,
      "byteOffset": 337888,
      "componentType": 5125,
      "count": 348,
      "type": "SCALAR"
    },
    {
      "bufferView": 2,
      "byteOffset": 873588,
      "componentType": 5126,
      "count": 747,
      "max": [
        -1.3267693519592285,
        155.11810302734375,
        84.25196838378906
      ],
      "min": [
        -85.57874298095703,
        149.60629272460938,
        3.9370079040527344
      ],
      "type": "VEC3"
    },
    {
      "bufferView": 2,
      "byteOffset": 882552,
      "componentType": 5126,
      "count": 747,
      "max": [
        1.0,
        1.0,
        1.0
      ],
      "min": [
        -1.0,
        -1.0,
        -1.0
      ],
      "type": "VEC3"
    },
    {
      "bufferView": 0,
      "byteOffset": 339280,
      "componentType": 5125,
      "count": 1152,
      "type": "SCALAR"
    },
    {
      "bufferView": 2,
      "byteOffset": 891516,
      "componentType": 5126,
      "count": 24,
      "max": [
        -3.8858208656311035,
        153.74014282226563,
        68.70079040527344
      ],
      "min": [
        -83.01968383789063,
        153.34645080566406,
        13.779529571533203
      ],
      "type": "VEC3"
    },
    {
      "bufferView": 0,
      "byteOffset": 343888,
      "componentType": 5125,
      "count": 72,
      "type": "SCALAR"
    },
    {
      "bufferView": 2,
      "byteOffset": 891804,
      "componentType": 5126,
      "count": 72,
      "max": [
        -3.8858208656311035,
        153.74014282226563,
        68.70079040527344
      ],
      "min": [
        -83.01968383789063,
        153.34645080566406,
        13.779529571533203
      ],
      "type": "VEC3"
    },
    {
      "bufferView": 2,
      "byteOffset": 892668,
      "componentType": 5126,
      "count": 72,
      "max": [
        1.0,
        1.0,
        1.0
      ],
      "min": [
        -1.0,
        -1.0,
        -1.0
      ],
      "type": "VEC3"
    },
    {
      "bufferView": 1,
      "byteOffset": 178960,
      "componentType": 5126,
      "count": 72,
      "max": [
        3.3375000953674316,
        2.0
      ],
      "min": [
        -3.3375000953674316,
        -0.04500000178813934
      ],
      "type": "VEC2"
    },
    {
      "bufferView": 0,
      "byteOffset": 344176,
      "componentType": 5125,
      "count": 108,
      "type": "SCALAR"
    },
    {
      "bufferView": 2,
      "byteOffset": 893532,
      "componentType": 5126,
      "count": 72,
      "max": [
        -3.8858208656311035,
        153.74014282226563,
        68.70079040527344
      ],
      "min": [
        -83.01968383789063,
        153.34645080566406,
        13.779529571533203
      ],
      "type": "VEC3"
    },
    {
      "bufferView": 2,
      "byteOffset": 894396,
      "componentType": 5126,
      "count": 72,
      "max": [
        1.0,
        1.0,
        1.0
      ],
      "min": [
        -1.0,
        -1.0,
        -1.0
      ],
      "type": "VEC3"
    },
    {
      "bufferView": 1,
      "byteOffset": 179536,
      "componentType": 5126,
      "count": 72,
      "max": [
        3.3375000953674316,
        1.7450000047683716
      ],
      "min": [
        -3.3375000953674316,
        -0.04500000178813934
      ],
      "type": "VEC2"
    },
    {
      "bufferView": 0,
      "byteOffset": 344608,
      "componentType": 5125,
      "count": 108,
      "type": "SCALAR"
    },
    {
      "bufferView": 2,
      "byteOffset": 895260,
      "componentType": 5126,
      "count": 4168,
      "max": [
        -28.295269012451172,
        152.75588989257813,
        47.24409103393555
      ],
      "min": [
        -58.610233306884766,
        150.39369201660156,
        35.43307113647461
      ],
      "type": "VEC3"
    },
    {
      "bufferView": 2,
      "byteOffset": 945276,
      "componentType": 5126,
      "count": 4168,
      "max": [
        1.0,
        1.0,
        1.0
      ],
      "min": [
        -1.0,
        -1.0,
        -1.0
      ],
      "type": "VEC3"
    },
    {
      "bufferView": 0,
      "byteOffset": 345040,
      "componentType": 5125,
      "count": 7608,
      "type": "SCALAR"
    },
    {
      "bufferView": 2,
      "byteOffset": 995292,
      "componentType": 5126,
      "count": 1290,
      "max": [
        -1.3267693519592285,
        155.11810302734375,
        85.03936767578125
      ],
      "min": [
        -85.57874298095703,
        151.18109130859375,
        73.22834777832031
      ],
      "type": "VEC3"
    },
    {
      "bufferView": 2,
      "byteOffset": 1010772,
      "componentType": 5126,
      "count": 1290,
      "max": [
        1.0,
        1.0,
        1.0
      ],
      "min": [
        -1.0,
        -1.0,
        -1.0
      ],
      "type": "VEC3"
    },
    {
      "bufferView": 0,
      "byteOffset": 375472,
      "componentType": 5125,
      "count": 2280,
      "type": "SCALAR"
    },
    {
      "bufferView": 2,
      "byteOffset": 1026252,
      "componentType": 5126,
      "count": 32,
      "max": [
        -1.3267693519592285,
        155.11810302734375,
        73.22834777832031
      ],
      "min": [
        -85.57874298095703,
        152.75588989257813,
        70.6692886352539
      ],
      "type": "VEC3"
    },
    {
      "bufferView": 0,
      "byteOffset": 384592,
      "componentType": 5125,
      "count": 96,
      "type": "SCALAR"
    },
    {
      "bufferView": 2,
      "byteOffset": 1026636,
      "componentType": 5126,
      "count": 24,
      "max": [
        -57.42913055419922,
        154.72439575195313,
        70.27558898925781
      ],
      "min": [
        -84.59449005126953,
        152.75588989257813,
        68.70079040527344
      ],
      "type": "VEC3"
    },
    {
      "bufferView": 2,
      "byteOffset": 1026924,
      "componentType": 5126,
      "count": 24,
      "max": [
        0.7071068286895752,
        1.0,
        1.0
      ],
      "min": [
        -0.7071068286895752,
        -1.0,
        -1.0
      ],
      "type": "VEC3"
    },
    {
      "bufferView": 1,
      "byteOffset": 180112,
      "componentType": 5126,
      "count": 24,
      "max": [
        1.4299999475479126,
        3.569999933242798
      ],
      "min": [
        -1.4299999475479126,
        -0.11999999731779099
      ],
      "type": "VEC2"
    },
    {
      "bufferView": 0,
      "byteOffset": 384976,
      "componentType": 5125,
      "count": 36,
      "type": "SCALAR"
    },
    {
      "bufferView": 2,
      "byteOffset": 1027212,
      "componentType": 5126,
      "count": 8,
      "max": [
        -3.295271396636963,
        149.64566040039063,
        83.07086944580078
      ],
      "min": [
        -83.6102294921875,
        149.60629272460938,
        75.19685363769531
      ],
      "type": "VEC3"
    },
    {
      "bufferView": 0,
      "byteOffset": 385120,
      "componentType": 5125,
      "count": 24,
      "type": "SCALAR"
    },
    {
      "bufferView": 2,
      "byteOffset": 1027308,
      "componentType": 5126,
      "count": 24,
      "max": [
        -3.295271396636963,
        149.64566040039063,
        83.07086944580078
      ],
      "min": [
        -83.6102294921875,
        149.60629272460938,
        75.19685363769531
      ],
      "type": "VEC3"
    },
    {
      "bufferView": 2,
      "byteOffset": 1027596,
      "componentType": 5126,
      "count": 24,
      "max": [
        1.0,
        1.0,
        1.0
      ],
      "min": [
        -1.0,
        -1.0,
        -1.0
      ],
      "type": "VEC3"
    },
    {
      "bufferView": 0,
      "byteOffset": 385216,
      "componentType": 5125,
      "count": 36,
      "type": "SCALAR"
    },
    {
      "bufferView": 2,
      "byteOffset": 1027884,
      "componentType": 5126,
      "count": 4446,
      "max": [
        122.3375015258789,
        189.96060180664063,
        141.2740936279297
      ],
      "min": [
        -127.17050170898438,
        -1.9685039520263672,
        -49.01816177368164
      ],
      "type": "VEC3"
    },
    {
      "bufferView": 0,
      "byteOffset": 385360,
      "componentType": 5125,
      "count": 12994,
      "type": "SCALAR"
    },
    {
      "bufferView": 2,
      "byteOffset": 1081236,
      "componentType": 5126,
      "count": 4027,
      "max": [
        80.90022277832031,
        12.716530799865723,
        46.61417007446289
      ],
      "min": [
        44.6158561706543,
        0.7004336714744568,
        -0.4330708980560303
      ],
      "type": "VEC3"
    },
    {
      "bufferView": 0,
      "byteOffset": 437336,
      "componentType": 5125,
      "count": 6540,
      "type": "SCALAR"
    },
    {
      "bufferView": 2,
      "byteOffset": 1129560,
      "componentType": 5126,
      "count": 540,
      "max": [
        81.84510803222656,
        13.779529571533203,
        40.35432815551758
      ],
      "min": [
        43.656131744384766,
        0.590549886226654,
        0.0
      ],
      "type": "VEC3"
    },
    {
      "bufferView": 0,
      "byteOffset": 463496,
      "componentType": 5125,
      "count": 2094,
      "type": "SCALAR"
    },
    {
      "bufferView": 2,
      "byteOffset": 1136040,
      "componentType": 5126,
      "count": 560,
      "max": [
        80.86084747314453,
        13.188979148864746,
        47.24409103393555
      ],
      "min": [
        44.640380859375,
        12.0078763961792,
        35.43307113647461
      ],
      "type": "VEC3"
    },
    {
      "bufferView": 0,
      "byteOffset": 471872,
      "componentType": 5125,
      "count": 2080,
      "type": "SCALAR"
    },
    {
      "bufferView": 2,
      "byteOffset": 1142760,
      "componentType": 5126,
      "count": 768,
      "max": [
        -28.295269012451172,
        152.75588989257813,
        47.24409103393555
      ],
      "min": [
        -58.610233306884766,
        150.39369201660156,
        35.43307113647461
      ],
      "type": "VEC3"
    },
    {
      "bufferView": 0,
      "byteOffset": 480192,
      "componentType": 5125,
      "count": 2844,
      "type": "SCALAR"
    },
    {
      "bufferView": 2,
      "byteOffset": 1151976,
      "componentType": 5126,
      "count": 428,
      "max": [
        -1.3267693519592285,
        155.11810302734375,
        85.03936767578125
      ],
      "min": [
        -85.57874298095703,
        151.18109130859375,
        73.22834777832031
      ],
      "type": "VEC3"
    },
    {
      "bufferView": 0,
      "byteOffset": 491568,
      "componentType": 5125,
      "count": 1308,
      "type": "SCALAR"
    }
  ],
  "asset": {
    "extras": {
      "author": "Pasha (https://sketchfab.com/Pasha-)",
      "license": "CC-BY-4.0 (http://creativecommons.org/licenses/by/4.0/)",
      "source": "https://sketchfab.com/3d-models/7-eleven-7b73409d2deb4adcb2086a8b7d0ab58a",
      "title": "7 eleven"
    },
    "generator": "Sketchfab-16.75.0",
    "version": "2.0"
  },
  "bufferViews": [
    {
      "buffer": 0,
      "byteLength": 496800,
      "name": "floatBufferViews",
      "target": 34963
    },
    {
      "buffer": 0,
      "byteLength": 180304,
      "byteOffset": 496800,
      "byteStride": 8,
      "name": "floatBufferViews",
      "target": 34962
    },
    {
      "buffer": 0,
      "byteLength": 1157112,
      "byteOffset": 677104,
      "byteStride": 12,
      "name": "floatBufferViews",
      "target": 34962
    }
  ],
  "buffers": [
    {
      "byteLength": 1834216,
      "uri": "scene.bin"
    }
  ],
  "extensionsUsed": [
    "KHR_materials_specular",
    "KHR_materials_clearcoat"
  ],
  "images": [
    {
      "uri": "textures/PIC_0004_1_baseColor.jpeg"
    },
    {
      "uri": "textures/material_specularf0.png"
    },
    {
      "uri": "textures/PIC_0004_3_baseColor.jpeg"
    },
    {
      "uri": "textures/PIC_0004_2_baseColor.jpeg"
    },
    {
      "uri": "textures/Metal_Corrogated_Shiny_baseColor.jpeg"
    },
    {
      "uri": "textures/material_8_baseColor.jpeg"
    },
    {
      "uri": "textures/material_8_specularf0.png"
    },
    {
      "uri": "textures/Metal_Corrogated_Shiny_1_2_baseColor.jpeg"
    },
    {
      "uri": "textures/Metal_Corrogated_Shiny_1_baseColor.jpeg"
    },
    {
      "uri": "textures/logo1_baseColor.jpeg"
    },
    {
      "uri": "textures/logo2_baseColor.jpeg"
    },
    {
      "uri": "textures/DSC01339_77_baseColor.jpeg"
    },
    {
      "uri": "textures/DSC01339_75_baseColor.jpeg"
    },
    {
      "uri": "textures/DSC01339_1_baseColor.jpeg"
    },
    {
      "uri": "textures/DSC01339_73_baseColor.jpeg"
    },
    {
      "uri": "textures/DSC01339_78_baseColor.jpeg"
    },
    {
      "uri": "textures/DSC01339_72_baseColor.jpeg"
    },
    {
      "uri": "textures/DSC02279_1_baseColor.jpeg"
    },
    {
      "uri": "textures/DSC02278_1_baseColor.jpeg"
    },
    {
      "uri": "textures/book_baseColor.jpeg"
    },
    {
      "uri": "textures/book_1_baseColor.jpeg"
    },
    {
      "uri": "textures/material_10_baseColor.jpeg"
    },
    {
      "uri": "textures/book_3_baseColor.jpeg"
    },
    {
      "uri": "textures/MEDGLASS_baseColor.jpeg"
    },
    {
      "uri": "textures/MEDGLASS_1_baseColor.jpeg"
    },
    {
      "uri": "textures/Metal_Corrogated_Shiny_1_3_baseColor.jpeg"
    }
  ],
  "materials": [
    {
      "alphaMode": "BLEND",
      "name": "edge_color000255",
      "pbrMetallicRoughness": {
        "baseColorFactor": [
          1.0,
          1.0,
          1.0,
          0.0
        ],
        "metallicFactor": 0.0,
        "roughnessFactor": 0.6
      }
    },
    {
      "name": "PIC_0004_1",
      "pbrMetallicRoughness": {
        "baseColorTexture": {
          "index": 0
        },
        "metallicFactor": 0.0,
        "roughnessFactor": 0.6
      }
    },
    {
      "extensions": {
        "KHR_materials_specular": {
          "specularColorFactor": [
            1.0,
            1.0,
            1.0
          ],
          "specularFactor": 1.0,
          "specularTexture": {
            "index": 1
          }
        }
      },
      "name": "material",
      "pbrMetallicRoughness": {
        "baseColorFactor": [
          0.643137,
          0.698039,
          0.733333,
          1.0
        ],
        "metallicFactor": 0.0,
        "roughnessFactor": 0.6
      }
    },
    {
      "name": "PIC_0004_3",
      "pbrMetallicRoughness": {
        "baseColorTexture": {
          "index": 2
        },
        "metallicFactor": 0.0,
        "roughnessFactor": 0.6
      }
    },
    {
      "name": "material_0",
      "pbrMetallicRoughness": {
        "metallicFactor": 0.0,
        "roughnessFactor": 0.6
      }
    },
    {
      "name": "PIC_0004_2",
      "pbrMetallicRoughness": {
        "baseColorTexture": {
          "index": 3
        },
        "metallicFactor": 0.0,
        "roughnessFactor": 0.6
      }
    },
    {
      "name": "Metal_Corrogated_Shiny",
      "pbrMetallicRoughness": {
        "baseColorTexture": {
          "index": 4
        },
        "metallicFactor": 0.0,
        "roughnessFactor": 0.6
      }
    },
    {
      "name": "0128_White",
      "pbrMetallicRoughness": {
        "baseColorFactor": [
          1.0,
          0.98298220257085,
          0.775209617965722,
          1.0
        ],
        "metallicFactor": 0.5101744186046512,
        "roughnessFactor": 0.6
      }
    },
    {
      "extensions": {
        "KHR_materials_clearcoat": {
          "clearcoatFactor": 1.0,
          "clearcoatRoughnessFactor": 0.04
        },
        "KHR_materials_specular": {
          "specularColorFactor": [
            1.0,
            1.0,
            1.0
          ],
          "specularFactor": 1.0,
          "specularTexture": {
            "index": 6
          }
        }
      },
      "name": "material_8",
      "pbrMetallicRoughness": {
        "baseColorTexture": {
          "index": 5
        },
        "metallicFactor": 0.0,
        "roughnessFactor": 0.0
      }
    },
    {
      "name": "Metal_Corrogated_Shiny_1_2",
      "pbrMetallicRoughness": {
        "baseColorTexture": {
          "index": 7
        },
        "metallicFactor": 0.0,
        "roughnessFactor": 0.6
      }
    },
    {
      "alphaMode": "BLEND",
      "name": "material_3",
      "pbrMetallicRoughness": {
        "baseColorFactor": [
          1.0,
          1.0,
          0.784314,
          0.6
        ],
        "metallicFactor": 0.0,
        "roughnessFactor": 0.6
      }
    },
    {
      "name": "Metal_Corrogated_Shiny_1",
      "pbrMetallicRoughness": {
        "baseColorTexture": {
          "index": 8
        },
        "metallicFactor": 0.0,
        "roughnessFactor": 0.6
      }
    },
    {
      "name": "logo1",
      "pbrMetallicRoughness": {
        "baseColorTexture": {
          "index": 9
        },
        "metallicFactor": 0.0,
        "roughnessFactor": 0.6
      }
    },
    {
      "name": "logo2",
      "pbrMetallicRoughness": {
        "baseColorTexture": {
          "index": 10
        },
        "metallicFactor": 0.0,
        "roughnessFactor": 0.6
      }
    },
    {
      "alphaMode": "BLEND",
      "name": "GLAZ",
      "pbrMetallicRoughness": {
        "baseColorFactor": [
          0.901961,
          1.0,
          1.0,
          0.0
        ],
        "metallicFactor": 0.0,
        "roughnessFactor": 0.6
      }
    },
    {
      "name": "edge_color169169169255",
      "pbrMetallicRoughness": {
        "metallicFactor": 0.0,
        "roughnessFactor": 0.6
      }
    },
    {
      "name": "LightGray",
      "pbrMetallicRoughness": {
        "baseColorFactor": [
          0.662745,
          0.662745,
          0.662745,
          1.0
        ],
        "metallicFactor": 0.0,
        "roughnessFactor": 0.6
      }
    },
    {
      "alphaMode": "BLEND",
      "name": "edge_color255255255255",
      "pbrMetallicRoughness": {
        "baseColorFactor": [
          1.0,
          1.0,
          1.0,
          0.0
        ],
        "metallicFactor": 0.0,
        "roughnessFactor": 0.6
      }
    },
    {
      "name": "DSC01339_77",
      "pbrMetallicRoughness": {
        "baseColorTexture": {
          "index": 11
        },
        "metallicFactor": 0.0,
        "roughnessFactor": 0.6
      }
    },
    {
      "name": "0135_DarkGray",
      "pbrMetallicRoughness": {
        "baseColorFactor": [
          0.317647,
          0.317647,
          0.317647,
          1.0
        ],
        "metallicFactor": 0.0,
        "roughnessFactor": 0.6
      }
    },
    {
      "name": "edge_color818181255",
      "pbrMetallicRoughness": {
        "metallicFactor": 0.0,
        "roughnessFactor": 0.6
      }
    },
    {
      "name": "material_2",
      "pbrMetallicRoughness": {
        "metallicFactor": 0.0,
        "roughnessFactor": 0.6
      }
    },
    {
      "name": "DSC01339_75",
      "pbrMetallicRoughness": {
        "baseColorTexture": {
          "index": 12
        },
        "metallicFactor": 0.0,
        "roughnessFactor": 0.6
      }
    },
    {
      "name": "0130_Gainsboro",
      "pbrMetallicRoughness": {
        "baseColorFactor": [
          0.862745,
          0.862745,
          0.862745,
          1.0
        ],
        "metallicFactor": 0.0,
        "roughnessFactor": 0.6
      }
    },
    {
      "name": "DSC01339_1",
      "pbrMetallicRoughness": {
        "baseColorTexture": {
          "index": 13
        },
        "metallicFactor": 0.0,
        "roughnessFactor": 0.6
      }
    },
    {
      "name": "edge_color132132132255",
      "pbrMetallicRoughness": {
        "metallicFactor": 0.0,
        "roughnessFactor": 0.6
      }
    },
    {
      "name": "DSC01339_73",
      "pbrMetallicRoughness": {
        "baseColorTexture": {
          "index": 14
        },
        "metallicFactor": 0.0,
        "roughnessFactor": 0.6
      }
    },
    {
      "name": "DSC01339_78",
      "pbrMetallicRoughness": {
        "baseColorTexture": {
          "index": 15
        },
        "metallicFactor": 0.0,
        "roughnessFactor": 0.6
      }
    },
    {
      "name": "DSC01339_72",
      "pbrMetallicRoughness": {
        "baseColorTexture": {
          "index": 16
        },
        "metallicFactor": 0.0,
        "roughnessFactor": 0.6
      }
    },
    {
      "name": "DSC02279_1",
      "pbrMetallicRoughness": {
        "baseColorTexture": {
          "index": 17
        },
        "metallicFactor": 0.0,
        "roughnessFactor": 0.6
      }
    },
    {
      "name": "DSC02278_1",
      "pbrMetallicRoughness": {
        "baseColorTexture": {
          "index": 18
        },
        "metallicFactor": 0.0,
        "roughnessFactor": 0.6
      }
    },
    {
      "alphaMode": "BLEND",
      "name": "edge_color174152131255",
      "pbrMetallicRoughness": {
        "baseColorFactor": [
          1.0,
          1.0,
          1.0,
          0.0
        ],
        "metallicFactor": 0.0,
        "roughnessFactor": 0.6
      }
    },
    {
      "name": "material_8",
      "pbrMetallicRoughness": {
        "baseColorFactor": [
          0.501961,
          0.501961,
          0.501961,
          1.0
        ],
        "metallicFactor": 0.0,
        "roughnessFactor": 0.6
      }
    },
    {
      "alphaMode": "BLEND",
      "name": "edge_color128128128255",
      "pbrMetallicRoughness": {
        "baseColorFactor": [
          1.0,
          1.0,
          1.0,
          0.0
        ],
        "metallicFactor": 0.0,
        "roughnessFactor": 0.6
      }
    },
    {
      "alphaMode": "BLEND",
      "name": "material_6",
      "pbrMetallicRoughness": {
        "baseColorFactor": [
          0.819608,
          0.94902,
          1.0,
          0.25098
        ],
        "metallicFactor": 0.0,
        "roughnessFactor": 0.6
      }
    },
    {
      "alphaMode": "BLEND",
      "name": "edge_color209242255255",
      "pbrMetallicRoughness": {
        "baseColorFactor": [
          1.0,
          1.0,
          1.0,
          0.0
        ],
        "metallicFactor": 0.0,
        "roughnessFactor": 0.6
      }
    },
    {
      "name": "book",
      "pbrMetallicRoughness": {
        "baseColorTexture": {
          "index": 19
        },
        "metallicFactor": 0.0,
        "roughnessFactor": 0.6
      }
    },
    {
      "name": "book_1",
      "pbrMetallicRoughness": {
        "baseColorTexture": {
          "index": 20
        },
        "metallicFactor": 0.0,
        "roughnessFactor": 0.6
      }
    },
    {
      "extensions": {
        "KHR_materials_specular": {
          "specularColorFactor": [
            1.0,
            1.0,
            1.0
          ],
          "specularFactor": 1.0,
          "specularTexture": {
            "index": 1
          }
        }
      },
      "name": "material_10",
      "pbrMetallicRoughness": {
        "baseColorTexture": {
          "index": 21
        },
        "metallicFactor": 0.0,
        "roughnessFactor": 0.6
      }
    },
    {
      "name": "edge_color161139100255",
      "pbrMetallicRoughness": {
        "metallicFactor": 0.0,
        "roughnessFactor": 0.6
      }
    },
    {
      "name": "book_3",
      "pbrMetallicRoughness": {
        "baseColorTexture": {
          "index": 22
        },
        "metallicFactor": 0.0,
        "roughnessFactor": 0.6
      }
    },
    {
      "name": "edge_color150125102255",
      "pbrMetallicRoughness": {
        "metallicFactor": 0.0,
        "roughnessFactor": 0.6
      }
    },
    {
      "name": "edge_color2552550255",
      "pbrMetallicRoughness": {
        "metallicFactor": 0.0,
        "roughnessFactor": 0.6
      }
    },
    {
      "name": "material_13",
      "pbrMetallicRoughness": {
        "baseColorFactor": [
          1.0,
          1.0,
          0.0,
          1.0
        ],
        "metallicFactor": 0.0,
        "roughnessFactor": 0.6
      }
    },
    {
      "alphaMode": "BLEND",
      "name": "edge_color142142142255",
      "pbrMetallicRoughness": {
        "baseColorFactor": [
          1.0,
          1.0,
          1.0,
          0.0
        ],
        "metallicFactor": 0.0,
        "roughnessFactor": 0.6
      }
    },
    {
      "name": "material_11",
      "pbrMetallicRoughness": {
        "baseColorFactor": [
          0.556863,
          0.556863,
          0.556863,
          1.0
        ],
        "metallicFactor": 0.0,
        "roughnessFactor": 0.6
      }
    },
    {
      "name": "edge_color969985255",
      "pbrMetallicRoughness": {
        "metallicFactor": 0.0,
        "roughnessFactor": 0.6
      }
    },
    {
      "name": "MEDGLASS",
      "pbrMetallicRoughness": {
        "baseColorTexture": {
          "index": 23
        },
        "metallicFactor": 0.0,
        "roughnessFactor": 0.6
      }
    },
    {
      "name": "MEDGLASS_1",
      "pbrMetallicRoughness": {
        "baseColorTexture": {
          "index": 24
        },
        "metallicFactor": 0.0,
        "roughnessFactor": 0.6
      }
    },
    {
      "alphaMode": "BLEND",
      "name": "edge_color202242255255",
      "pbrMetallicRoughness": {
        "baseColorFactor": [
          1.0,
          1.0,
          1.0,
          0.0
        ],
        "metallicFactor": 0.0,
        "roughnessFactor": 0.6
      }
    },
    {
      "alphaMode": "BLEND",
      "name": "material_12",
      "pbrMetallicRoughness": {
        "baseColorFactor": [
          0.792157,
          0.94902,
          1.0,
          0.501961
        ],
        "metallicFactor": 0.0,
        "roughnessFactor": 0.6
      }
    },
    {
      "alphaMode": "BLEND",
      "name": "edge_color124126142255",
      "pbrMetallicRoughness": {
        "baseColorFactor": [
          1.0,
          1.0,
          1.0,
          0.0
        ],
        "metallicFactor": 0.0,
        "roughnessFactor": 0.6
      }
    },
    {
      "name": "material_14",
      "pbrMetallicRoughness": {
        "baseColorFactor": [
          0.486274,
          0.494118,
          0.556863,
          1.0
        ],
        "metallicFactor": 0.0,
        "roughnessFactor": 0.6
      }
    },
    {
      "name": "edge_color193193193255",
      "pbrMetallicRoughness": {
        "metallicFactor": 0.0,
        "roughnessFactor": 0.6
      }
    },
    {
      "name": "Metal_Corrogated_Shiny_1_3",
      "pbrMetallicRoughness": {
        "baseColorTexture": {
          "index": 25
        },
        "metallicFactor": 0.0,
        "roughnessFactor": 0.6
      }
    },
    {
      "name": "edge_color250250250255",
      "pbrMetallicRoughness": {
        "metallicFactor": 0.0,
        "roughnessFactor": 0.6
      }
    },
    {
      "name": "material_19",
      "pbrMetallicRoughness": {
        "baseColorFactor": [
          0.980392,
          0.980392,
          0.980392,
          1.0
        ],
        "metallicFactor": 0.0,
        "roughnessFactor": 0.6
      }
    }
  ],
  "meshes": [
    {
      "name": "Material3",
      "primitives": [
        {
          "attributes": {
            "NORMAL": 1,
            "POSITION": 0,
            "TEXCOORD_0": 2
          },
          "indices": 3,
          "material": 1,
          "mode": 4
        }
      ]
    },
    {
      "name": "Material2",
      "primitives": [
        {
          "attributes": {
            "NORMAL": 5,
            "POSITION": 4,
            "TEXCOORD_0": 6
          },
          "indices": 7,
          "material": 2,
          "mode": 4
        }
      ]
    },
    {
      "name": "Material3",
      "primitives": [
        {
          "attributes": {
            "NORMAL": 9,
            "POSITION": 8,
            "TEXCOORD_0": 10
          },
          "indices": 11,
          "material": 3,
          "mode": 4
        }
      ]
    },
    {
      "name": "Material3",
      "primitives": [
        {
          "attributes": {
            "NORMAL": 13,
            "POSITION": 12
          },
          "indices": 14,
          "material": 4,
          "mode": 4
        }
      ]
    },
    {
      "name": "Material3",
      "primitives": [
        {
          "attributes": {
            "NORMAL": 16,
            "POSITION": 15,
            "TEXCOORD_0": 17
          },
          "indices": 18,
          "material": 5,
          "mode": 4
        }
      ]
    },
    {
      "name": "Material3",
      "primitives": [
        {
          "attributes": {
            "NORMAL": 20,
            "POSITION": 19,
            "TEXCOORD_0": 21
          },
          "indices": 22,
          "material": 6,
          "mode": 4
        }
      ]
    },
    {
      "name": "Material3",
      "primitives": [
        {
          "attributes": {
            "NORMAL": 24,
            "POSITION": 23
          },
          "indices": 25,
          "material": 7,
          "mode": 4
        }
      ]
    },
    {
      "name": "Material3",
      "primitives": [
        {
          "attributes": {
            "NORMAL": 27,
            "POSITION": 26,
            "TEXCOORD_0": 28
          },
          "indices": 29,
          "material": 8,
          "mode": 4
        }
      ]
    },
    {
      "name": "Material3",
      "primitives": [
        {
          "attributes": {
            "NORMAL": 31,
            "POSITION": 30,
            "TEXCOORD_0": 32
          },
          "indices": 33,
          "material": 9,
          "mode": 4
        }
      ]
    },
    {
      "name": "Material3",
      "primitives": [
        {
          "attributes": {
            "NORMAL": 35,
            "POSITION": 34
          },
          "indices": 36,
          "material": 10,
          "mode": 4
        }
      ]
    },
    {
      "name": "Material2",
      "primitives": [
        {
          "attributes": {
            "NORMAL": 38,
            "POSITION": 37,
            "TEXCOORD_0": 39
          },
          "indices": 40,
          "material": 11,
          "mode": 4
        }
      ]
    },
    {
      "name": "Material3",
      "primitives": [
        {
          "attributes": {
            "NORMAL": 42,
            "POSITION": 41,
            "TEXCOORD_0": 43
          },
          "indices": 44,
          "material": 12,
          "mode": 4
        }
      ]
    },
    {
      "name": "Material3",
      "primitives": [
        {
          "attributes": {
            "NORMAL": 46,
            "POSITION": 45,
            "TEXCOORD_0": 47
          },
          "indices": 48,
          "material": 13,
          "mode": 4
        }
      ]
    },
    {
      "name": "Material2",
      "primitives": [
        {
          "attributes": {
            "NORMAL": 50,
            "POSITION": 49
          },
          "indices": 51,
          "material": 14,
          "mode": 4
        }
      ]
    },
    {
      "name": "Material3",
      "primitives": [
        {
          "attributes": {
            "POSITION": 52
          },
          "indices": 53,
          "material": 15,
          "mode": 1
        }
      ]
    },
    {
      "name": "Material2",
      "primitives": [
        {
          "attributes": {
            "NORMAL": 55,
            "POSITION": 54
          },
          "indices": 56,
          "material": 16,
          "mode": 4
        }
      ]
    },
    {
      "name": "Material4",
      "primitives": [
        {
          "attributes": {
            "POSITION": 57
          },
          "indices": 58,
          "material": 17,
          "mode": 1
        }
      ]
    },
    {
      "name": "Material2",
      "primitives": [
        {
          "attributes": {
            "NORMAL": 60,
            "POSITION": 59,
            "TEXCOORD_0": 61
          },
          "indices": 62,
          "material": 18,
          "mode": 4
        }
      ]
    },
    {
      "name": "Material2",
      "primitives": [
        {
          "attributes": {
            "NORMAL": 64,
            "POSITION": 63
          },
          "indices": 65,
          "material": 19,
          "mode": 4
        }
      ]
    },
    {
      "name": "Material5",
      "primitives": [
        {
          "attributes": {
            "POSITION": 66
          },
          "indices": 67,
          "material": 20,
          "mode": 1
        }
      ]
    },
    {
      "name": "Material2",
      "primitives": [
        {
          "attributes": {
            "NORMAL": 69,
            "POSITION": 68
          },
          "indices": 70,
          "material": 21,
          "mode": 4
        }
      ]
    },
    {
      "name": "Material3",
      "primitives": [
        {
          "attributes": {
            "NORMAL": 72,
            "POSITION": 71,
            "TEXCOORD_0": 73
          },
          "indices": 74,
          "material": 22,
          "mode": 4
        }
      ]
    },
    {
      "name": "Material3",
      "primitives": [
        {
          "attributes": {
            "NORMAL": 76,
            "POSITION": 75
          },
          "indices": 77,
          "material": 23,
          "mode": 4
        }
      ]
    },
    {
      "name": "Material3",
      "primitives": [
        {
          "attributes": {
            "NORMAL": 79,
            "POSITION": 78,
            "TEXCOORD_0": 80
          },
          "indices": 81,
          "material": 24,
          "mode": 4
        }
      ]
    },
    {
      "name": "Material6",
      "primitives": [
        {
          "attributes": {
            "POSITION": 82
          },
          "indices": 83,
          "material": 25,
          "mode": 1
        }
      ]
    },
    {
      "name": "Material3",
      "primitives": [
        {
          "attributes": {
            "NORMAL": 85,
            "POSITION": 84,
            "TEXCOORD_0": 86
          },
          "indices": 87,
          "material": 26,
          "mode": 4
        }
      ]
    },
    {
      "name": "Material3",
      "primitives": [
        {
          "attributes": {
            "NORMAL": 89,
            "POSITION": 88,
            "TEXCOORD_0": 90
          },
          "indices": 91,
          "material": 27,
          "mode": 4
        }
      ]
    },
    {
      "name": "Material3",
      "primitives": [
        {
          "attributes": {
            "NORMAL": 93,
            "POSITION": 92,
            "TEXCOORD_0": 94
          },
          "indices": 95,
          "material": 28,
          "mode": 4
        }
      ]
    },
    {
      "name": "Material3",
      "primitives": [
        {
          "attributes": {
            "NORMAL": 97,
            "POSITION": 96,
            "TEXCOORD_0": 98
          },
          "indices": 99,
          "material": 29,
          "mode": 4
        }
      ]
    },
    {
      "name": "Material3",
      "primitives": [
        {
          "attributes": {
            "NORMAL": 101,
            "POSITION": 100,
            "TEXCOORD_0": 102
          },
          "indices": 103,
          "material": 30,
          "mode": 4
        }
      ]
    },
    {
      "name": "Material2",
      "primitives": [
        {
          "attributes": {
            "NORMAL": 105,
            "POSITION": 104
          },
          "indices": 106,
          "material": 32,
          "mode": 4
        }
      ]
    },
    {
      "name": "Material2",
      "primitives": [
        {
          "attributes": {
            "NORMAL": 108,
            "POSITION": 107
          },
          "indices": 109,
          "material": 34,
          "mode": 4
        }
      ]
    },
    {
      "name": "Material2",
      "primitives": [
        {
          "attributes": {
            "NORMAL": 111,
            "POSITION": 110,
            "TEXCOORD_0": 112
          },
          "indices": 113,
          "material": 36,
          "mode": 4
        }
      ]
    },
    {
      "name": "Material3",
      "primitives": [
        {
          "attributes": {
            "NORMAL": 115,
            "POSITION": 114,
            "TEXCOORD_0": 116
          },
          "indices": 117,
          "material": 37,
          "mode": 4
        }
      ]
    },
    {
      "name": "Material3",
      "primitives": [
        {
          "attributes": {
            "NORMAL": 119,
            "POSITION": 118,
            "TEXCOORD_0": 120
          },
          "indices": 121,
          "material": 38,
          "mode": 4
        }
      ]
    },
    {
      "name": "Material6",
      "primitives": [
        {
          "attributes": {
            "POSITION": 122
          },
          "indices": 123,
          "material": 39,
          "mode": 1
        }
      ]
    },
    {
      "name": "Material3",
      "primitives": [
        {
          "attributes": {
            "NORMAL": 125,
            "POSITION": 124,
            "TEXCOORD_0": 126
          },
          "indices": 127,
          "material": 40,
          "mode": 4
        }
      ]
    },
    {
      "name": "Material5",
      "primitives": [
        {
          "attributes": {
            "POSITION": 128
          },
          "indices": 129,
          "material": 41,
          "mode": 1
        }
      ]
    },
    {
      "name": "Material4",
      "primitives": [
        {
          "attributes": {
            "POSITION": 130
          },
          "indices": 131,
          "material": 42,
          "mode": 1
        }
      ]
    },
    {
      "name": "Material2",
      "primitives": [
        {
          "attributes": {
            "NORMAL": 133,
            "POSITION": 132
          },
          "indices": 134,
          "material": 43,
          "mode": 4
        }
      ]
    },
    {
      "name": "Material3",
      "primitives": [
        {
          "attributes": {
            "POSITION": 135
          },
          "indices": 136,
          "material": 44,
          "mode": 1
        }
      ]
    },
    {
      "name": "Material3",
      "primitives": [
        {
          "attributes": {
            "NORMAL": 138,
            "POSITION": 137
          },
          "indices": 139,
          "material": 45,
          "mode": 4
        }
      ]
    },
    {
      "name": "Material4",
      "primitives": [
        {
          "attributes": {
            "POSITION": 140
          },
          "indices": 141,
          "material": 46,
          "mode": 1
        }
      ]
    },
    {
      "name": "Material2",
      "primitives": [
        {
          "attributes": {
            "NORMAL": 143,
            "POSITION": 142,
            "TEXCOORD_0": 144
          },
          "indices": 145,
          "material": 47,
          "mode": 4
        }
      ]
    },
    {
      "name": "Material3",
      "primitives": [
        {
          "attributes": {
            "NORMAL": 147,
            "POSITION": 146,
            "TEXCOORD_0": 148
          },
          "indices": 149,
          "material": 48,
          "mode": 4
        }
      ]
    },
    {
      "name": "Material2",
      "primitives": [
        {
          "attributes": {
            "NORMAL": 151,
            "POSITION": 150
          },
          "indices": 152,
          "material": 50,
          "mode": 4
        }
      ]
    },
    {
      "name": "Material3",
      "primitives": [
        {
          "attributes": {
            "NORMAL": 154,
            "POSITION": 153
          },
          "indices": 155,
          "material": 52,
          "mode": 4
        }
      ]
    },
    {
      "name": "Material4",
      "primitives": [
        {
          "attributes": {
            "POSITION": 156
          },
          "indices": 157,
          "material": 53,
          "mode": 1
        }
      ]
    },
    {
      "name": "Material3",
      "primitives": [
        {
          "attributes": {
            "NORMAL": 159,
            "POSITION": 158,
            "TEXCOORD_0": 160
          },
          "indices": 161,
          "material": 54,
          "mode": 4
        }
      ]
    },
    {
      "name": "Material4",
      "primitives": [
        {
          "attributes": {
            "POSITION": 162
          },
          "indices": 163,
          "material": 55,
          "mode": 1
        }
      ]
    },
    {
      "name": "Material3",
      "primitives": [
        {
          "attributes": {
            "NORMAL": 165,
            "POSITION": 164
          },
          "indices": 166,
          "material": 56,
          "mode": 4
        }
      ]
    },
    {
      "name": "Material2",
      "primitives": [
        {
          "attributes": {
            "POSITION": 167
          },
          "indices": 168,
          "material": 0,
          "mode": 1
        }
      ]
    },
    {
      "name": "Material2",
      "primitives": [
        {
          "attributes": {
            "POSITION": 169
          },
          "indices": 170,
          "material": 31,
          "mode": 1
        }
      ]
    },
    {
      "name": "Material3",
      "primitives": [
        {
          "attributes": {
            "POSITION": 171
          },
          "indices": 172,
          "material": 33,
          "mode": 1
        }
      ]
    },
    {
      "name": "Material3",
      "primitives": [
        {
          "attributes": {
            "POSITION": 173
          },
          "indices": 174,
          "material": 35,
          "mode": 1
        }
      ]
    },
    {
      "name": "Material3",
      "primitives": [
        {
          "attributes": {
            "POSITION": 175
          },
          "indices": 176,
          "material": 49,
          "mode": 1
        }
      ]
    },
    {
      "name": "Material2",
      "primitives": [
        {
          "attributes": {
            "POSITION": 177
          },
          "indices": 178,
          "material": 51,
          "mode": 1
        }
      ]
    }
  ],
  "nodes": [
    {
      "children": [
        1
      ],
      "matrix": [
        1.0,
        0.0,
        0.0,
        0.0,
        0.0,
        2.220446049250313e-16,
        -1.0,
        0.0,
        0.0,
        1.0,
        2.220446049250313e-16,
        0.0,
        0.0,
        0.0,
        0.0,
        1.0
      ],
      "name": "Sketchfab_model"
    },
    {
      "children": [
        2,
        3,
        4,
        5,
        6,
        7,
        8,
        9,
        10,
        11,
        12,
        13,
        14,
        15,
        16,
        17,
        18,
        19,
        20,
        21,
        22,
        23,
        24,
        25,
        26,
        27,
        28,
        29,
        30,
        31,
        32,
        33,
        34,
        35,
        36,
        37,
        38,
        39,
        40,
        41,
        42,
        43,
        44,
        45,
        46,
        47,
        48,
        49,
        50,
        51,
        52,
        53,
        54,
        55,
        56,
        57,
        58,
        59
      ],
      "name": "Collada visual scene group"
    },
    {
      "mesh": 0,
      "name": "Material3"
    },
    {
      "mesh": 1,
      "name": "Material2"
    },
    {
      "mesh": 2,
      "name": "Material3"
    },
    {
      "mesh": 3,
      "name": "Material3"
    },
    {
      "mesh": 4,
      "name": "Material3"
    },
    {
      "mesh": 5,
      "name": "Material3"
    },
    {
      "mesh": 6,
      "name": "Material3"
    },
    {
      "mesh": 7,
      "name": "Material3"
    },
    {
      "mesh": 8,
      "name": "Material3"
    },
    {
      "mesh": 9,
      "name": "Material3"
    },
    {
      "mesh": 10,
      "name": "Material2"
    },
    {
      "mesh": 11,
      "name": "Material3"
    },
    {
      "mesh": 12,
      "name": "Material3"
    },
    {
      "mesh": 13,
      "name": "Material2"
    },
    {
      "mesh": 14,
      "name": "Material3"
    },
    {
      "mesh": 15,
      "name": "Material2"
    },
    {
      "mesh": 16,
      "name": "Material4"
    },
    {
      "mesh": 17,
      "name": "Material2"
    },
    {
      "mesh": 18,
      "name": "Material2"
    },
    {
      "mesh": 19,
      "name": "Material5"
    },
    {
      "mesh": 20,
      "name": "Material2"
    },
    {
      "mesh": 21,
      "name": "Material3"
    },
    {
      "mesh": 22,
      "name": "Material3"
    },
    {
      "mesh": 23,
      "name": "Material3"
    },
    {
      "mesh": 24,
      "name": "Material6"
    },
    {
      "mesh": 25,
      "name": "Material3"
    },
    {
      "mesh": 26,
      "name": "Material3"
    },
    {
      "mesh": 27,
      "name": "Material3"
    },
    {
      "mesh": 28,
      "name": "Material3"
    },
    {
      "mesh": 29,
      "name": "Material3"
    },
    {
      "mesh": 30,
      "name": "Material2"
    },
    {
      "mesh": 31,
      "name": "Material2"
    },
    {
      "mesh": 32,
      "name": "Material2"
    },
    {
      "mesh": 33,
      "name": "Material3"
    },
    {
      "mesh": 34,
      "name": "Material3"
    },
    {
      "mesh": 35,
      "name": "Material6"
    },
    {
      "mesh": 36,
      "name": "Material3"
    },
    {
      "mesh": 37,
      "name": "Material5"
    },
    {
      "mesh": 38,
      "name": "Material4"
    },
    {
      "mesh": 39,
      "name": "Material2"
    },
    {
      "mesh": 40,
      "name": "Material3"
    },
    {
      "mesh": 41,
      "name": "Material3"
    },
    {
      "mesh": 42,
      "name": "Material4"
    },
    {
      "mesh": 43,
      "name": "Material2"
    },
    {
      "mesh": 44,
      "name": "Material3"
    },
    {
      "mesh": 45,
      "name": "Material2"
    },
    {
      "mesh": 46,
      "name": "Material3"
    },
    {
      "mesh": 47,
      "name": "Material4"
    },
    {
      "mesh": 48,
      "name": "Material3"
    },
    {
      "mesh": 49,
      "name": "Material4"
    },
    {
      "mesh": 50,
      "name": "Material3"
    },
    {
      "mesh": 51,
      "name": "Material2"
    },
    {
      "mesh": 52,
      "name": "Material2"
    },
    {
      "mesh": 53,
      "name": "Material3"
    },
    {
      "mesh": 54,
      "name": "Material3"
    },
    {
      "mesh": 55,
      "name": "Material3"
    },
    {
      "mesh": 56,
      "name": "Material2"
    },
    {
      "children": [
        60,
        62
      ],
      "name": "SketchUp"
    },
    {
      "children": [
        61
      ],
      "matrix": [
        0.9303867,
        0.3665797,
        0.0,
        0.0,
        -0.007746899,
        0.01966179,
        0.9997767,
        0.0,
        0.3664978,
        -0.9301789,
        0.02113292,
        0.0,
        123.5824,
        -250.6353,
        57.34966,
        1.0
      ],
      "name": "skp_camera_Last_Saved_SketchUp_View"
    },
    {
      "name": "ID1"
    },
    {
      "children": [
        63
      ],
      "matrix": [
        0.9426449,
        0.3327824,
        0.02600894,
        0.0,
        -0.03766888,
        0.02863302,
        0.99888,
        0.0,
        0.331665,
        -0.9425688,
        0.03952631,
        0.0,
        113.5325,
        -285.5787,
        61.09587,
        1.0
      ],
      "name": "skp_camera_PIC_0004"
    },
    {
      "name": "ID2"
    }
  ],
  "samplers": [
    {
      "magFilter": 9729,
      "minFilter": 9987,
      "wrapS": 10497,
      "wrapT": 10497
    }
  ],
  "scene": 0,
  "scenes": [
    {
      "name": "Sketchfab_Scene",
      "nodes": [
        0
      ]
    }
  ],
  "textures": [
    {
      "sampler": 0,
      "source": 0
    },
    {
      "sampler": 0,
      "source": 1
    },
    {
      "sampler": 0,
      "source": 2
    },
    {
      "sampler": 0,
      "source": 3
    },
    {
      "sampler": 0,
      "source": 4
    },
    {
      "sampler": 0,
      "source": 5
    },
    {
      "sampler": 0,
      "source": 6
    },
    {
      "sampler": 0,
      "source": 7
    },
    {
      "sampler": 0,
      "source": 8
    },
    {
      "sampler": 0,
      "source": 9
    },
    {
      "sampler": 0,
      "source": 10
    },
    {
      "sampler": 0,
      "source": 11
    },
    {
      "sampler": 0,
      "source": 12
    },
    {
      "sampler": 0,
      "source": 13
    },
    {
      "sampler": 0,
      "source": 14
    },
    {
      "sampler": 0,
      "source": 15
    },
    {
      "sampler": 0,
      "source": 16
    },
    {
      "sampler": 0,
      "source": 17
    },
    {
      "sampler": 0,
      "source": 18
    },
    {
      "sampler": 0,
      "source": 19
    },
    {
      "sampler": 0,
      "source": 20
    },
    {
      "sampler": 0,
      "source": 21
    },
    {
      "sampler": 0,
      "source": 22
    },
    {
      "sampler": 0,
      "source": 23
    },
    {
      "sampler": 0,
      "source": 24
    },
    {
      "sampler": 0,
      "source": 25
    }
  ]
}
